<svg xmlns="http://www.w3.org/2000/svg" xmlns:xlink="http://www.w3.org/1999/xlink" version="1.1" x="0px" y="0px" viewBox="0 0 100 125" style="enable-background:new 0 0 100 100;" xml:space="preserve"><g><path d="M71.3349609,40.5869141v-1.109375c2.43396-0.6455688,4.2373047-2.8787231,4.2373047-5.5351562   c0-1.7904053-0.8190308-3.3901978-2.0975952-4.4415283c0.9071655-0.9752197,1.4677124-2.2860107,1.4677124-3.7298584   c0-2.3765869-1.5110474-4.3969727-3.6074219-5.1370239v-1.2208862c0-0.8286133-0.671875-1.5-1.5-1.5s-1.5,0.6713867-1.5,1.5   v0.9155273H67.9375v-0.9155273c0-0.8286133-0.671875-1.5-1.5-1.5s-1.5,0.6713867-1.5,1.5v0.9155273h-1.2304688   c-0.828125,0-1.5,0.6713867-1.5,1.5s0.671875,1.5,1.5,1.5h0.5107422v13.3427734h-0.5107422c-0.828125,0-1.5,0.6713867-1.5,1.5   s0.671875,1.5,1.5,1.5H64.9375v0.9155273c0,0.8286133,0.671875,1.5,1.5,1.5s1.5-0.6713867,1.5-1.5v-0.9155273h0.3974609v0.9155273   c0,0.8286133,0.671875,1.5,1.5,1.5S71.3349609,41.4155273,71.3349609,40.5869141z M69.8955078,36.6713867h-2.6777344v-5.4580078   h2.3623047h0.3154297c1.4755859,0,2.6767578,1.2241211,2.6767578,2.7290039S71.3710938,36.6713867,69.8955078,36.6713867z    M69.5800781,28.2133789h-2.3623047v-4.8847656h2.3623047c1.3027344,0,2.3623047,1.0957031,2.3623047,2.4423828   S70.8828125,28.2133789,69.5800781,28.2133789z"/><path d="M86.1640625,30c0-11.3535156-7.7490234-20.590332-17.2744141-20.590332   c-9.5244141,0-17.2734375,9.2368164-17.2734375,20.590332s7.7490234,20.590332,17.2734375,20.590332   C78.4150391,50.590332,86.1640625,41.3535156,86.1640625,30z M54.6162109,30c0-9.6992188,6.4033203-17.590332,14.2734375-17.590332   c7.8710938,0,14.2744141,7.8911133,14.2744141,17.590332s-6.4033203,17.590332-14.2744141,17.590332   C61.0195312,47.590332,54.6162109,39.6992188,54.6162109,30z"/><path d="M89.1867065,48.7681885c1.4364014-1.6868286,2.6717529-3.633667,3.6642456-5.7878418   c0.1260376-0.1704712,0.2200317-0.3657837,0.2647095-0.5808105C94.6986694,38.743103,95.5927734,34.526062,95.5927734,30   c0-2.1548462-0.2064209-4.237793-0.5893555-6.2255859c-0.0081787-0.0678101-0.0189819-0.1340942-0.0358887-0.1988525   c-0.4214478-2.114563-1.0475464-4.1171875-1.8518677-5.9750977c-0.0446777-0.2150269-0.1386719-0.4103394-0.2647095-0.5808105   c-0.9924927-2.1541748-2.2278442-4.1010132-3.6642456-5.7878418c-0.123291-0.2654419-0.3207397-0.4873047-0.5671997-0.6409912   c-3.6044922-3.9219971-8.347229-6.2758789-13.614624-6.2758789h-6.1152344   C57.0439453,4.3149414,47.4072266,15.8374023,47.4072266,30s9.6367188,25.6850586,21.4824219,25.6850586   c0.1444702,0,0.2869873-0.0096436,0.4307861-0.0130615c0.043457,0.0037842,0.0853271,0.0130615,0.1297607,0.0130615h5.5546875   c5.267395,0,10.0101318-2.3538818,13.614624-6.2758789C88.8659668,49.2554932,89.0634155,49.0336304,89.1867065,48.7681885z    M85.2359619,46.6391602c0.6831665-0.9578857,1.3085938-1.9752808,1.869812-3.0463867h2.0709229   c-0.6289673,1.0993042-1.3359375,2.1167603-2.1079712,3.0463867H85.2359619z M87.0687256,13.3608398   c0.7720337,0.9296265,1.4790039,1.9470825,2.1079712,3.0463867h-2.0709229   c-0.5612183-1.071106-1.1866455-2.088501-1.869812-3.0463867H87.0687256z M90.3335571,28.5   c-0.0500488-1.0333862-0.1546631-2.0489502-0.3043823-3.0463867h2.2232666   c0.1505737,0.991394,0.2495728,2.0089111,0.2998047,3.0463867H90.3335571z M90.3335571,31.5h2.218689   c-0.0502319,1.0374756-0.149231,2.0549927-0.2998047,3.0463867h-2.2232666   C90.178894,33.5489502,90.2835083,32.5333862,90.3335571,31.5z M90.6196899,19.4072266   c0.3905029,0.9741821,0.7276611,1.991333,1.0075684,3.0463867H89.425293   c-0.2695312-1.0463257-0.5976562-2.0614624-0.972229-3.0463867H90.6196899z M89.425293,37.5463867h2.2019653   c-0.2799072,1.0550537-0.6170654,2.0722046-1.0075684,3.0463867h-2.166626   C88.8276367,39.6078491,89.1557617,38.5927124,89.425293,37.5463867z M83.9268799,10.3608398h-1.2125244   c-0.6994019-0.704895-1.4376221-1.3551025-2.2088013-1.9503174C81.7115479,8.9064941,82.8562012,9.5629272,83.9268799,10.3608398z    M50.4072266,30c0-12.5087891,8.2910156-22.6850586,18.4824219-22.6850586S87.3730469,17.4912109,87.3730469,30   s-8.2919922,22.6850586-18.4833984,22.6850586S50.4072266,42.5087891,50.4072266,30z M82.7143555,49.6391602h1.2125244   c-1.0706787,0.7979126-2.215332,1.4543457-3.4213257,1.9503174C81.2767334,50.9942627,82.0149536,50.3440552,82.7143555,49.6391602   z"/><path d="M31.1103516,49.409668c-9.5253906,0-17.2744141,9.2368164-17.2744141,20.590332s7.7490234,20.590332,17.2744141,20.590332   c9.5244141,0,17.2734375-9.2368164,17.2734375-20.590332S40.6347656,49.409668,31.1103516,49.409668z M31.1103516,87.590332   c-7.8710938,0-14.2744141-7.8911133-14.2744141-17.590332s6.4033203-17.590332,14.2744141-17.590332   c7.8701172,0,14.2734375,7.8911133,14.2734375,17.590332S38.9804688,87.590332,31.1103516,87.590332z"/><path d="M31.1103516,44.3149414h-6.1152344c-5.267395,0-10.0101929,2.3539429-13.6146851,6.2759399   c-0.24646,0.1537476-0.4437866,0.3754883-0.5670776,0.6408691c-1.4364624,1.6868896-2.671814,3.6337891-3.6643677,5.7880249   c-0.1259155,0.1703491-0.2197266,0.3654175-0.2644653,0.5802612c-0.8045044,1.8581543-1.430603,3.8610229-1.8521118,5.9758911   c-0.0168457,0.0644531-0.0275879,0.1304932-0.0357666,0.1980591C4.6136475,65.7619629,4.4072266,67.8449707,4.4072266,70   c0,4.5262451,0.894165,8.7434082,2.4772949,12.3999634c0.0447388,0.2148438,0.1385498,0.4099121,0.2644653,0.5802612   c0.9925537,2.1542358,2.2279053,4.1011353,3.6643677,5.7880249c0.123291,0.2653809,0.3206177,0.4871216,0.5670776,0.6408691   c3.6044922,3.9219971,8.34729,6.2759399,13.6146851,6.2759399h5.5546875c0.0444336,0,0.0863037-0.0092773,0.1297607-0.0130615   c0.1437988,0.003418,0.2863159,0.0130615,0.4307861,0.0130615c11.8457031,0,21.4824219-11.5224609,21.4824219-25.6850586   S42.9560547,44.3149414,31.1103516,44.3149414z M12.9312744,86.6391602   c-0.7720337-0.9296265-1.4790039-1.9470825-2.1079712-3.0463867h2.0709229   c0.5612183,1.071106,1.1866455,2.088501,1.869812,3.0463867H12.9312744z M9.6664429,71.5   c0.0500488,1.0333862,0.1546631,2.0489502,0.3043823,3.0463867H7.7475586   C7.5969849,73.5549927,7.4979858,72.5374756,7.4477539,71.5H9.6664429z M9.6664429,68.5h-2.218689   c0.0502319-1.0374756,0.149231-2.0549927,0.2998047-3.0463867h2.2232666C9.821106,66.4510498,9.7164917,67.4666138,9.6664429,68.5z    M9.3803101,80.5927734c-0.3905029-0.9741821-0.7276611-1.991333-1.0075684-3.0463867h2.2019653   c0.2695312,1.0463257,0.5976562,2.0614624,0.972229,3.0463867H9.3803101z M10.574707,62.4536133H8.3727417   c0.2799072-1.0550537,0.6170654-2.0722046,1.0075684-3.0463867h2.166626   C11.1723633,60.3921509,10.8442383,61.4072876,10.574707,62.4536133z M12.8942261,56.4072266h-2.0709229   c0.6289673-1.0993042,1.3359375-2.1167603,2.1079712-3.0463867h1.8327637   C14.0808716,54.3187256,13.4554443,55.3361206,12.8942261,56.4072266z M17.2856445,50.3608398h-1.2125244   c1.0706787-0.7979126,2.215332-1.4543457,3.4213257-1.9503174C18.7232666,49.0057373,17.9850464,49.6559448,17.2856445,50.3608398z    M16.0731201,89.6391602h1.2125244c0.6994019,0.704895,1.4376221,1.3551025,2.2088013,1.9503174   C18.2884521,91.0935059,17.1437988,90.4370728,16.0731201,89.6391602z M31.1103516,92.6850586   c-10.1914062,0-18.4833984-10.1762695-18.4833984-22.6850586s8.2919922-22.6850586,18.4833984-22.6850586   S49.5927734,57.4912109,49.5927734,70S41.3017578,92.6850586,31.1103516,92.6850586z"/><path d="M30.4853516,61.6430664h5.3105469c0.828125,0,1.5-0.6713867,1.5-1.5s-0.671875-1.5-1.5-1.5h-2.6875v-1.5224609   c0-0.8286133-0.671875-1.5-1.5-1.5s-1.5,0.6713867-1.5,1.5v1.5445557c-2.890564,0.225708-5.1845703,3.0087891-5.1845703,6.4061279   c0,3.5449219,2.4951172,6.4287109,5.5615234,6.4287109h1.2490234c1.3886719,0,2.5615234,1.5703125,2.5615234,3.4287109   s-1.1728516,3.4282227-2.5615234,3.4282227h-5.3105469c-0.828125,0-1.5,0.6713867-1.5,1.5s0.671875,1.5,1.5,1.5h3.6845703   v1.5224609c0,0.8286133,0.671875,1.5,1.5,1.5s1.5-0.6713867,1.5-1.5v-1.729187   c2.4029541-0.7098999,4.1875-3.2260742,4.1875-6.2214966c0-3.5449219-2.4951172-6.4287109-5.5615234-6.4287109h-1.2490234   c-1.3886719,0-2.5615234-1.5703125-2.5615234-3.4287109S29.0966797,61.6430664,30.4853516,61.6430664z"/><path d="M29.3525391,40.8789062c0.828125,0,1.5-0.6713867,1.5-1.5v-7.3740234c0-2.3974609,1.9501953-4.3481445,4.3476562-4.3481445   h5.0744629c-0.380249,0.5814819-0.3422852,1.3562012,0.1687012,1.8671875   c0.2929688,0.2929688,0.6767578,0.4394531,1.0605469,0.4394531s0.7675781-0.1464844,1.0605469-0.4394531l2.3486328-2.3481445   c0.28125-0.28125,0.4394531-0.6625977,0.4394531-1.0605469s-0.1582031-0.7792969-0.4394531-1.0605469l-2.375-2.375   c-0.5859375-0.5859375-1.5351562-0.5859375-2.1210938,0c-0.543396,0.5429688-0.5601807,1.3885498-0.0957031,1.9770508h-5.1210938   c-4.0517578,0-7.3476562,3.2963867-7.3476562,7.3481445v7.3740234   C27.8525391,40.2075195,28.5244141,40.8789062,29.3525391,40.8789062z"/><path d="M71.8525391,59.2402344c-0.828125,0-1.5,0.6713867-1.5,1.5v7.3745117c0,2.3974609-1.9511719,4.3481445-4.3486328,4.3481445   h-5.0748901c0.3805542-0.5817261,0.3428345-1.3569946-0.1682739-1.8676758c-0.5859375-0.5859375-1.5351562-0.5859375-2.1210938,0   l-2.3476562,2.3481445c-0.5859375,0.5859375-0.5859375,1.5356445,0,2.1210938l2.375,2.375   c0.2929688,0.2929688,0.6767578,0.4394531,1.0605469,0.4394531s0.7675781-0.1464844,1.0605469-0.4394531   c0.5432739-0.5427856,0.5601807-1.3880615,0.0960083-1.9765625h5.119812c4.0517578,0,7.3486328-3.2963867,7.3486328-7.3481445   v-7.3745117C73.3525391,59.9116211,72.6806641,59.2402344,71.8525391,59.2402344z"/></g></svg>